<svg xmlns="http://www.w3.org/2000/svg" fill="currentColor" viewBox="0 0 24 24" class="fill-current size-6 text-gray-1300">
  <path fill-rule="evenodd" d="M12.006 24l-.442-.497c-.245-.284-6.214-7.097-8.04-12.538A7 7 0 0 1 3 8.505v-.308C3 3.68 7.037 0 12.006 0 16.974 0 21 3.679 21 8.197v.272a8.5 8.5 0 0 1-.524 2.508c-1.826 5.43-7.784 12.242-8.04 12.526zm0-22.817c-4.329 0-7.842 3.146-7.842 7.014v.272c.029.696.178 1.38.442 2.023 1.489 4.4 5.98 9.971 7.4 11.675 1.408-1.704 5.899-7.275 7.377-11.64a7.2 7.2 0 0 0 .454-2.129v-.2c0-3.869-3.514-7.015-7.831-7.015m0 13.33a5.4 5.4 0 0 1-3.032-.934 5.53 5.53 0 0 1-2.01-2.49 5.63 5.63 0 0 1-.31-3.205 5.58 5.58 0 0 1 1.493-2.84 5.43 5.43 0 0 1 2.794-1.519 5.37 5.37 0 0 1 3.153.316c.997.42 1.85 1.13 2.45 2.043.599.912.919 1.985.919 3.082a5.68 5.68 0 0 1-1.622 3.9 5.5 5.5 0 0 1-3.835 1.648Zm0-9.912A4.276 4.276 0 0 0 8.97 5.88a4.4 4.4 0 0 0-.93 1.416 4.43 4.43 0 0 0 0 3.34c.215.53.531 1.011.93 1.416a4.3 4.3 0 0 0 1.393.947c.52.219 1.079.332 1.643.332a4.33 4.33 0 0 0 3.02-1.303 4.47 4.47 0 0 0 1.273-3.074c0-1.159-.452-2.27-1.256-3.09a4.27 4.27 0 0 0-3.037-1.286V4.6Z" clip-rule="evenodd"/>
</svg>
