<?xml version="1.0" ?><svg xmlns="http://www.w3.org/2000/svg" data-v-b8570f47="" fill="currentColor" viewBox="0 0 24 24" class="fill-current size-7 text-gray-800" style="color: #D1D0D0;"><path fill-rule="evenodd" d="M.061 15.706a.6.6 0 0 0-.06.272c0 .1.026.197.077.281a.5.5 0 0 0 .212.197c1.206.63 1.911.98 2.473 1.257l.504.25v.001l.356.175c.412.201.843.412 1.523.762l.015.008.016.005c.32.098.66.112.99.041.326-.07.633-.22.892-.438l15.21-9.694a6 6 0 0 0 1.089-.84c.333-.27.556-.658.622-1.084a1.67 1.67 0 0 0-.27-1.202.53.53 0 0 0-.206-.206l-.009-.005c-.84-.407-1.439-.567-2.106-.447-.648.117-1.343.496-2.382 1.086l-.003.002-4.922 2.92q-.722-.118-1.522-.236l-.072-.01c-.583-.089-1.189-.18-1.806-.284h-.002l-1.113-.176h-.003c-1.45-.228-2.965-.467-4.461-.713a1.5 1.5 0 0 0-.638.027 1.6 1.6 0 0 0-.575.28l-.683.45a.91.91 0 0 0-.497.737v.019a.66.66 0 0 0 .337.574l5.422 3.199-2.565 1.652-1.726-.1-1.982-.11h-.003a.6.6 0 0 0-.322.083l-.006.004L.25 15.49l-.005.003a.6.6 0 0 0-.184.213m4.037-.111 1.831.107a.7.7 0 0 0 .443-.114l3.226-2.041.004-.003a.78.78 0 0 0 .257-1.007.7.7 0 0 0-.255-.268l-.002-.001-5.399-3.21.296-.174.009-.005c.126-.083.193-.12.247-.137a.35.35 0 0 1 .173-.004c.95.147 1.903.3 2.84.451l.056.01c.918.147 1.821.293 2.694.428 1.268.196 2.465.382 3.524.556l.01.001a.6.6 0 0 0 .228-.017l.077-.015a.6.6 0 0 0 .171-.056l.012-.007 5.02-2.987c.987-.537 1.522-.824 1.966-.915.405-.083.743-.005 1.325.267a.5.5 0 0 1 .05.151c.007.062 0 .14-.052.244-.11.223-.414.55-1.144 1.022L6.457 17.578l-.009.006c-.266.19-.463.268-.6.296a.53.53 0 0 1-.248 0c-.803-.42-1.235-.63-1.772-.893l-.18-.087c-.496-.243-1.055-.516-1.997-.996l.627-.423z" clip-rule="evenodd"/></svg>