<svg xmlns="http://www.w3.org/2000/svg" fill="currentColor" viewBox="0 0 24 24" class="fill-current size-6 text-gray-1300"><path fill-rule="evenodd" d="M16.877 20.18a3.7 3.7 0 0 1-.128-1.03c-1.363-.246-3.982-.883-5.092-2.777a4.46 4.46 0 0 1-.147-3.89 3.02 3.02 0 0 0-.135-2.642c-1.039-1.833-3.913-2.696-4.963-2.957A3.58 3.58 0 0 1 3.6 8.256a3.6 3.6 0 0 1-2.184-.75A3.63 3.63 0 0 1 .13 5.583a3.64 3.64 0 0 1 .635-3.192 3.61 3.61 0 0 1 2.931-1.39 3.6 3.6 0 0 1 2.859 1.535 3.63 3.63 0 0 1 .476 3.22c1.387.378 4.237 1.383 5.418 3.467a4.26 4.26 0 0 1 .217 3.685 3.23 3.23 0 0 0 .048 2.829c.846 1.444 3.08 1.974 4.264 2.186q.098-.26.232-.504a3.6 3.6 0 0 1 1.518-1.45 3.59 3.59 0 0 1 3.978.5c.54.47.927 1.09 1.114 1.782a3.635 3.635 0 0 1-1.174 3.956 3.6 3.6 0 0 1-4.102.28 3.61 3.61 0 0 1-1.667-2.306Zm2.85-3.264a2.38 2.38 0 0 0-1.402 1.128 2.395 2.395 0 0 0 .879 3.221 2.37 2.37 0 0 0 1.778.254 2.4 2.4 0 0 0 1.16-.742 2.396 2.396 0 0 0-.616-3.631 2.39 2.39 0 0 0-1.804-.23zM2.978 2.32a2.394 2.394 0 0 0-.544 4.373 2.36 2.36 0 0 0 2.627-.194 2.38 2.38 0 0 0 .826-2.511 2.38 2.38 0 0 0-1.11-1.44 2.36 2.36 0 0 0-1.799-.228" clip-rule="evenodd"></path></svg>