<svg xmlns="http://www.w3.org/2000/svg" fill="currentColor" viewBox="0 0 24 24" class="fill-current size-6 text-gray-1300"><path fill-rule="evenodd" d="m7.065 24-.06-.824s-.123-1.202-.123-1.456c-.06-.384-.06-.634 3.106-3.36-.06-.886-.122-3.546-.122-4.876a49.6 49.6 0 0 0-6.699 3.23l-.727.384-.181-.886c0-.064-.182-.95-.244-1.837-.061-.384-.122-1.203 7.734-7.092 0-.886-.06-3.36 0-4.433C9.81 1.14 11.698.191 11.76.128L12.002 0l.305.127c.182.126 1.948 1.14 2.01 2.722.06 1.14 0 3.547 0 4.433 7.794 5.89 7.734 6.712 7.673 7.092q-.074.926-.244 1.837l-.182.823-.727-.384a46 46 0 0 0-6.699-3.23c0 1.33-.06 3.99-.121 4.877 3.166 2.722 3.105 2.976 3.105 3.36-.06.253-.122 1.456-.122 1.456l-.06.824-.728-.254s-3.653-1.203-4.323-1.456c-1.394.36-2.762.823-4.093 1.388zm4.933-3.04q1.98.526 3.897 1.267c0-.192.061-.384.061-.507-.363-.444-1.705-1.646-2.862-2.66l-.244-.191v-.317c.061-1.583.182-4.812.122-5.636a.85.85 0 0 1 .07-.389.8.8 0 0 1 .235-.308c.304-.192.974-.634 7.43 2.913.06-.254.06-.507.121-.76-.487-.761-4.141-3.737-7.49-6.206l-.244-.192v-.317c0-.063.122-3.42.06-4.686 0-.633-.67-1.203-1.095-1.52-.427.317-1.036.824-1.096 1.457-.061 1.33.06 4.686.06 4.686v.316l-.243.192c-3.41 2.534-7.064 5.447-7.552 6.27q.017.387.122.76c6.454-3.547 7.125-3.103 7.43-2.913a.62.62 0 0 1 .263.294c.055.126.07.268.041.403-.06.824.061 4.053.122 5.636v.317l-.243.192C9.805 20.074 8.466 21.277 8.1 21.72c-.01.15.011.302.061.444a18 18 0 0 1 3.837-1.203Z" clip-rule="evenodd"></path></svg>