<svg xmlns="http://www.w3.org/2000/svg" fill="#327DB6" viewBox="0 0 24 24" class="size-5 w-7 h-7">
  <path fill-rule="evenodd" d="m4.783 19.552-.183-.47s-1.111-2.834-1.3-3.3a22.6 22.6 0 0 0-2.833-1.79L0 13.728l.38-.378s.64-.635.788-.788.291-.306 3.413.278c.495-.443 2.081-1.86 2.849-2.47a36 36 0 0 0-5.228-2.545l-.508-.209.351-.423c.02-.024.468-.567.931-1.03.168-.169.611-.616 7.809 1.328.479-.419 1.89-1.646 2.566-2.156a2.74 2.74 0 0 1 2.495-.069l.188.081.04.2a2.88 2.88 0 0 1-.567 2.442c-.081.076-.184.162-.291.253a.4.4 0 0 1-.561-.038l-.006-.006a.405.405 0 0 1 .044-.567c.1-.088.2-.169.276-.243a1.9 1.9 0 0 0 .343-1.47 1.78 1.78 0 0 0-1.49.056c-.78.592-2.662 2.246-2.682 2.262l-.162.141-.208-.057c-3.125-.849-6.648-1.646-7.285-1.54-.168.173-.336.354-.475.511 5.262 2.22 5.33 2.828 5.36 3.065a.51.51 0 0 1-.212.471c-.619.443-3.169 2.728-3.193 2.753l-.148.133-.195-.038c-1.175-.22-2.569-.443-2.973-.45l-.327.333a15 15 0 0 1 2.634 1.762c.04.053.044.053 1.2 3.01.148-.1.3-.206.412-.282q.141-1.51.128-3.029v-.2l.156-.12c.028-.02 2.746-2.1 3.3-2.625a.5.5 0 0 1 .5-.12c.223.071.8.252 1.95 5.874.18-.108.388-.237.588-.37.132-.74.174-1.495.124-2.246a.4.4 0 1 1 .8 0c.016 2.394-.172 2.712-.419 2.877-.543.366-1.155.7-1.183.72l-.479.266-.108-.539a36.6 36.6 0 0 0-1.48-5.656c-.747.64-2.434 1.936-2.957 2.342-.032 3.2-.2 3.3-.388 3.424-.176.117-.919.623-.923.627l-.394.278Z" clip-rule="evenodd"></path>
  <path fill="#fff" fill-rule="evenodd" d="M23.029 14.465H12.243a.977.977 0 0 1-.971-.979V9.571a.977.977 0 0 1 .971-.979h10.786a.977.977 0 0 1 .971.98v3.913a.977.977 0 0 1-.971.98" clip-rule="evenodd"></path>
  <path fill="#E3B01F" fill-rule="evenodd" d="M23.029 14.465H12.243a.977.977 0 0 1-.971-.979V9.571a.977.977 0 0 1 .971-.979h10.786a.977.977 0 0 1 .971.98v3.913a.977.977 0 0 1-.971.98m-9.754-1.397V9.886h.512v2.732h1.328v.445zm2.559-3.18h.512v3.18h-.512zm3.307-.002h.532l-1.1 3.181h-.537l-1.1-3.18h.528l.656 1.974q.066.179.108.364.059.225.076.332c.02-.109.048-.243.081-.38q.04-.165.1-.324zm1.12 3.182h1.776v-.442h-1.264v-1h1.181v-.434h-1.181v-.866h1.264v-.44h-1.776z" clip-rule="evenodd"></path>
</svg>
